<svg xmlns="http://www.w3.org/2000/svg" version="1.1" xmlns:xlink="http://www.w3.org/1999/xlink" xmlns:svgjs="http://svgjs.dev/svgjs" width="1500" height="1500" viewBox="0 0 1500 1500"><rect width="1500" height="1500" fill="#000000"></rect><g transform="matrix(0.6666666666666666,0,0,0.6666666666666666,249.39393939393938,678.982674388042)"><svg viewBox="0 0 396 56" data-background-color="#000000" preserveAspectRatio="xMidYMid meet" height="212" width="1500" xmlns="http://www.w3.org/2000/svg" xmlns:xlink="http://www.w3.org/1999/xlink"><g id="tight-bounds" transform="matrix(1,0,0,1,0.2400000000000091,0.13894033681356177)"><svg viewBox="0 0 395.52 55.72211932637286" height="55.72211932637286" width="395.52"><g><svg viewBox="0 0 473.6454197616227 66.7286776859504" height="55.72211932637286" width="395.52"><g><rect width="5.987722405685951" height="66.7286776859504" x="56.46303137246568" y="0" fill="#fffdfa" opacity="1" stroke-width="0" stroke="transparent" fill-opacity="1" class="rect-yte-0" data-fill-palette-color="primary" rx="1%" id="yte-0" data-palette-color="#fffdfa"></rect></g><g transform="matrix(1,0,0,1,78.12541976162271,0.16599173553718316)"><svg viewBox="0 0 395.52 66.39669421487604" height="66.39669421487604" width="395.52"><g id="textblocktransform"><svg viewBox="0 0 395.52 66.39669421487604" height="66.39669421487604" width="395.52" id="textblock"><g><svg viewBox="0 0 395.52 66.39669421487604" height="66.39669421487604" width="395.52"><g transform="matrix(1,0,0,1,0,0)"><svg width="395.52" viewBox="3.91 -39.06 236.3 39.67" height="66.39669421487604" data-palette-color="#fffdfa"><path d="M25.63-13.67L25.63-35.64 30.64-35.64Q30.4-34.18 30.33-31.49 30.27-28.81 30.27-25.02L30.27-25.02 30.27-12.57Q30.27-6.62 27.11-3 23.95 0.61 17.33 0.61L17.33 0.61Q10.64 0.61 7.46-3 4.27-6.62 4.27-12.57L4.27-12.57 4.27-25.02Q4.27-28.64 4.22-31.41 4.17-34.18 3.91-35.64L3.91-35.64 8.91-35.64 8.91-13.67Q8.91-10.5 9.68-8.17 10.45-5.83 12.29-4.57 14.14-3.3 17.33-3.3L17.33-3.3Q20.48-3.3 22.29-4.57 24.1-5.83 24.87-8.17 25.63-10.5 25.63-13.67L25.63-13.67ZM43.45-14.16L43.45 0 38.94 0 38.94-15.01Q38.94-18.6 38.54-21.12 38.13-23.63 37.72-24.9L37.72-24.9 42.11-24.9Q42.31-24.39 42.49-23.49 42.67-22.58 42.84-21.66 43.02-20.73 43.09-20.14L43.09-20.14Q44.87-22.68 47.12-24.04 49.36-25.39 51.02-25.39L51.02-25.39Q53.07-25.39 54.31-24.23 55.54-23.07 56.09-21.22 56.64-19.36 56.64-17.21L56.64-17.21 52.73-16.36Q52.73-18.19 52.05-19.59 51.36-21 49.92-21L49.92-21Q48.9-21 47.59-19.98 46.29-18.97 45.14-17.4 43.99-15.82 43.45-14.16L43.45-14.16ZM60.05-39.06L60.05-39.06 64.94-39.06Q64.94-36.38 64.94-33.34 64.94-30.3 64.94-27.51 64.94-24.73 64.94-22.74 64.94-20.75 64.94-20.14L64.94-20.14Q66.65-22.39 68.95-23.89 71.26-25.39 74.34-25.39L74.34-25.39Q76.8-25.39 78.71-23.83 80.61-22.27 81.68-19.51 82.76-16.75 82.76-13.18L82.76-13.18Q82.76-9.01 81.29-5.91 79.83-2.81 77.18-1.1 74.53 0.61 70.92 0.61L70.92 0.61Q67.96 0.61 65.35-0.13 62.74-0.88 60.42-1.59L60.42-1.59Q60.42-2.59 60.42-4.54 60.42-6.49 60.42-9.03 60.42-11.57 60.42-14.31 60.42-17.04 60.42-19.64 60.42-22.24 60.42-24.33 60.42-26.42 60.42-27.59L60.42-27.59Q60.42-29.35 60.41-31.49 60.4-33.64 60.32-35.67 60.25-37.7 60.05-39.06ZM64.94-14.28L64.94-14.28 64.94-4.52Q66.74-3.76 68.05-3.47 69.36-3.17 70.92-3.17L70.92-3.17Q74.16-3.17 76.26-5.69 78.36-8.2 78.36-12.33L78.36-12.33Q78.36-16.41 76.94-18.76 75.51-21.12 72.87-21.12L72.87-21.12Q70.6-21.12 68.39-19.23 66.18-17.33 64.94-14.28ZM110.83 0L110.83 0 106.56 0Q106.22-0.78 105.96-2.28 105.71-3.78 105.58-5.38 105.46-6.98 105.46-8.06L105.46-8.06 105.46-10.01Q104.51-7.5 103.02-5.04 101.53-2.59 99.53-0.99 97.53 0.61 94.96 0.61L94.96 0.61Q91.89 0.61 89.76-2.11 87.64-4.83 87.64-10.01L87.64-10.01Q87.64-12.92 88.42-15.66 89.2-18.41 90.81-20.61 92.42-22.8 94.91-24.1 97.4-25.39 100.82-25.39L100.82-25.39Q103.19-25.39 105.29-25.09 107.39-24.78 109.25-24.29L109.25-24.29 109.25-12.94Q109.25-8.33 109.68-5.19 110.12-2.05 110.83 0ZM104.73-17.94L104.73-17.94 104.73-21.04Q104.12-21.19 103.2-21.34 102.29-21.48 100.46-21.48L100.46-21.48Q97.28-21.48 95.46-19.84 93.64-18.19 92.9-15.58 92.16-12.96 92.16-10.01L92.16-10.01Q92.16-7.18 93.21-5.36 94.26-3.54 95.7-3.54L95.7-3.54Q96.99-3.54 98.28-4.68 99.58-5.81 100.74-7.6 101.9-9.4 102.79-11.39 103.68-13.38 104.2-15.14 104.73-16.89 104.73-17.94ZM138.78 0L138.78 0 134.27 0Q134.27 0 134.27-1.05 134.27-2.1 134.27-3.76 134.27-5.42 134.27-7.28 134.27-9.13 134.27-10.78 134.27-12.43 134.27-13.43L134.27-13.43Q134.27-16.48 133.73-18.15 133.19-19.82 132.12-20.47 131.04-21.12 129.38-21.12L129.38-21.12Q127.63-21.12 126.02-20.07 124.4-19.02 123.2-17.42 121.99-15.82 121.45-14.16L121.45-14.16 121.45 0 116.93 0Q116.93 0 116.93-1.09 116.93-2.17 116.93-3.91 116.93-5.64 116.93-7.68 116.93-9.72 116.93-11.66 116.93-13.6 116.93-15.01L116.93-15.01Q116.93-18.6 116.53-21.12 116.13-23.63 115.71-24.9L115.71-24.9 120.11-24.9Q120.3-24.39 120.49-23.49 120.67-22.58 120.84-21.66 121.01-20.73 121.08-20.14L121.08-20.14Q123.4-22.92 125.77-24.16 128.14-25.39 130.73-25.39L130.73-25.39Q134.63-25.39 136.71-22.84 138.78-20.29 138.78-15.26L138.78-15.26Q138.78-14.04 138.78-12.15 138.78-10.25 138.78-8.15 138.78-6.05 138.78-4.2 138.78-2.34 138.78-1.17 138.78 0 138.78 0ZM171.13-8.18L171.13-8.18 172.11-3.42Q170.69-2.1 168.65-1.21 166.61-0.32 164.43 0.15 162.24 0.61 160.39 0.61L160.39 0.61Q155.46 0.61 151.87-1.59 148.28-3.78 146.34-7.81 144.4-11.84 144.4-17.33L144.4-17.33Q144.4-22.05 145.74-25.6 147.08-29.15 149.41-31.52 151.75-33.89 154.7-35.07 157.65-36.25 160.88-36.25L160.88-36.25Q163.49-36.25 166.31-35.52 169.13-34.79 171.74-32.84L171.74-32.84 170.28-28.44Q167.98-30.52 165.54-31.31 163.1-32.1 160.88-32.1L160.88-32.1Q157.48-32.1 154.83-30.52 152.18-28.93 150.67-25.78 149.16-22.63 149.16-17.94L149.16-17.94Q149.16-13.57 150.65-10.36 152.14-7.15 154.74-5.41 157.34-3.66 160.63-3.66L160.63-3.66Q163.42-3.66 166.25-4.9 169.08-6.13 171.13-8.18ZM183.21-14.16L183.21-14.16 183.21 0 178.7 0Q178.7-2.95 178.7-6.29 178.7-9.62 178.7-12.94 178.7-16.26 178.7-19.21 178.7-22.17 178.7-24.35 178.7-26.54 178.7-27.59L178.7-27.59Q178.7-31.52 178.65-34.51 178.6-37.5 178.33-39.06L178.33-39.06 183.21-39.06Q183.21-36.21 183.21-33.07 183.21-29.93 183.21-27.12 183.21-24.32 183.21-22.45 183.21-20.58 183.21-20.26L183.21-20.26Q185.02-22.8 187.47-24.1 189.93-25.39 192.49-25.39L192.49-25.39Q196.4-25.39 198.47-22.84 200.55-20.29 200.55-15.26L200.55-15.26Q200.55-14.16 200.55-12.33 200.55-10.5 200.55-8.33 200.55-6.15 200.55-3.98 200.55-1.81 200.55 0L200.55 0 196.03 0Q196.03-1.64 196.03-3.58 196.03-5.52 196.03-7.43 196.03-9.35 196.03-10.94 196.03-12.52 196.03-13.43L196.03-13.43Q196.03-16.48 195.49-18.15 194.96-19.82 193.87-20.47 192.78-21.12 191.15-21.12L191.15-21.12Q189.39-21.12 187.78-20.07 186.17-19.02 184.96-17.42 183.75-15.82 183.21-14.16ZM208.11-24.9L208.11-24.9 213-24.9Q213-21.58 213-18.26 213-14.94 213-11.6L213-11.6Q213-10.03 213.06-7.8 213.12-5.57 213.23-3.44 213.34-1.32 213.48 0L213.48 0 208.48 0Q208.48-1.76 208.48-4.13 208.48-6.49 208.48-8.85 208.48-11.21 208.48-12.94L208.48-12.94Q208.48-16.5 208.42-19.74 208.36-22.97 208.11-24.9ZM207.62-32.84L207.62-32.84Q207.62-34.2 208.48-35.17 209.33-36.13 210.68-36.13L210.68-36.13Q212.04-36.13 212.95-35.17 213.85-34.2 213.85-32.84L213.85-32.84Q213.85-31.49 212.95-30.52 212.04-29.54 210.68-29.54L210.68-29.54Q209.33-29.54 208.48-30.52 207.62-31.49 207.62-32.84ZM239.73-6.35L239.73-6.35 240.21-2.08Q238.36-0.68 236.45-0.04 234.55 0.61 231.79 0.61L231.79 0.61Q228.52 0.61 225.83-0.92 223.15-2.44 221.55-5.26 219.95-8.08 219.95-11.96L219.95-11.96Q219.95-15.65 221.5-18.7 223.05-21.75 225.91-23.57 228.76-25.39 232.65-25.39L232.65-25.39Q235.09-25.39 236.86-24.82 238.63-24.24 239.97-23.32L239.97-23.32 239.12-18.92Q237.48-20.14 235.82-20.75 234.16-21.36 232.28-21.36L232.28-21.36Q229.03-21.36 226.81-18.95 224.59-16.53 224.59-12.21L224.59-12.21Q224.59-8.28 226.66-5.85 228.74-3.42 232.28-3.42L232.28-3.42Q234.48-3.42 236.31-4.17 238.14-4.93 239.73-6.35Z" opacity="1" transform="matrix(1,0,0,1,0,0)" fill="#fffdfa" class="wordmark-text-0" data-fill-palette-color="primary" id="text-0"></path></svg></g></svg></g></svg></g></svg></g><g transform="matrix(1,0,0,1,0,0.16599173553718316)"><svg viewBox="0 0 40.7883653889946 66.39669421487604" height="66.39669421487604" width="40.7883653889946"><g><svg xmlns="http://www.w3.org/2000/svg" xmlns:xlink="http://www.w3.org/1999/xlink" version="1.1" x="0" y="0" viewBox="19.455431813346152 1.8478492647092535 56.08811596764305 91.30215073529075" enable-background="new 0 0 95 95" xml:space="preserve" height="66.39669421487604" width="40.7883653889946" class="icon-icon-0" data-fill-palette-color="accent" id="icon-0"><path d="M70.457 40.749S70.455 40.761 70.45 40.773C69.808 36.902 66.359 35.24 61.466 36.207 56.575 37.132 52.134 39.36 50.6 42.1 50.598 42.099 50.598 42.094 50.593 42.094 50.598 42.091 49.336 41.729 47.744 41.741 46.156 41.729 44.894 42.091 44.898 42.094 44.894 42.094 44.894 42.097 44.891 42.1 43.355 39.36 38.915 37.132 34.027 36.207 29.132 35.241 25.683 36.903 25.042 40.773L25.034 40.749S24.926 41.699 24.028 41.879C24.198 42.589 24.365 43.289 24.536 43.981 24.531 43.981 25.064 44.112 25.26 44.649 26.671 49.772 31.496 52.381 36.379 51.895 40.351 51.531 43.615 49.576 44.994 46.932 44.994 46.938 44.994 46.944 44.997 46.952 45.154 46.692 45.271 46.356 45.37 45.992 45.4 45.9 45.426 45.806 45.446 45.713 45.582 45.177 45.697 44.612 45.844 44.163 46.125 43.321 47.743 43.253 47.743 43.251 47.743 43.253 49.358 43.321 49.643 44.163 49.798 44.612 49.91 45.177 50.043 45.713 50.066 45.808 50.092 45.904 50.122 46 50.223 46.359 50.341 46.692 50.492 46.949 50.497 46.944 50.497 46.938 50.497 46.932 51.872 49.576 55.14 51.531 59.111 51.895 63.996 52.381 68.818 49.772 70.23 44.649 70.425 44.112 70.957 43.981 70.957 43.981L71.462 41.879C70.564 41.699 70.457 40.749 70.457 40.749M36.228 50.915C31.747 51.305 27.36 48.625 26.427 43.988 25.504 39.27 28.857 36.254 34.182 37.289 39.539 38.206 44.118 41.081 44.195 44.445 44.28 47.821 40.698 50.555 36.228 50.915M59.263 50.915C54.797 50.555 51.209 47.821 51.297 44.445 51.375 41.081 55.954 38.206 61.309 37.289 66.64 36.254 69.989 39.27 69.068 43.988 68.134 48.625 63.75 51.309 59.263 50.915" fill="#279dbc" data-fill-palette-color="accent"></path><g fill="#279dbc" data-fill-palette-color="accent"><path fill-rule="evenodd" clip-rule="evenodd" d="M19.624 39.18C19.862 31.905 21.162 24.841 24.476 18.296 30.681 6.043 43.396-0.377 55.907 2.549 61.507 3.861 65.943 7.544 65.517 13.845 65.492 14.202 65.815 14.75 66.126 14.937 69.014 16.674 70.751 19.383 72.064 22.441 74.33 27.714 75.149 33.335 75.42 39.03 75.915 49.447 74.928 59.731 72.361 69.828 70.698 76.38 68.571 82.742 64.597 88.231 63.589 89.621 62.296 90.787 61.133 92.056L60.812 91.782C62.125 89.57 63.022 87.243 62.891 84.449L61.191 85.537C62.296 83.198 62.621 80.856 62.264 78.435 61.484 73.182 60.763 68.203 61.29 62.863 61.821 57.466 64.754 52.726 65.733 47.443A55.5 55.5 0 0 0 65.284 24.835C64.647 22.021 63.43 19.457 61.509 17.274 59.605 20.652 56.636 22.76 53.684 24.852 51.491 26.407 49.33 28.05 46.969 29.304 40.434 32.771 36.36 44.804 35.827 46.403 34.91 49.16 34.364 51.943 31.926 53.861 32.264 52.91 32.611 52.147 32.797 51.344 32.984 50.551 33.008 49.717 33.137 48.616L30.58 50.986 30.273 47.34C30.133 47.344 29.995 47.35 29.857 47.353 29.353 48.957 30.583 54.245 31.128 56.041 31.137 56.067 29.564 52.341 29.573 52.37 29.564 52.37 31.847 62.065 31.842 62.067 30.938 62.137 29.213 58.045 29.428 58.656 29.076 63.893 31.242 67.17 33.189 71.601 33.075 71.687 30.705 70.655 30.591 70.74 29.422 69.61 28.254 68.478 26.926 67.19 26.87 76.554 28.266 85.216 33.731 92.703 33.605 92.853 33.479 93.004 33.353 93.15 31.617 91.484 29.673 89.996 28.184 88.117 23.537 82.251 21.939 75.101 20.793 67.821 19.301 58.328 19.31 48.748 19.624 39.18" fill="#279dbc" data-fill-palette-color="accent"></path></g></svg></g></svg></g></svg></g><defs></defs></svg><rect width="395.52" height="55.72211932637286" fill="none" stroke="none" visibility="hidden"></rect></g></svg></g></svg>